<svg width="85" height="86" viewBox="0 0 85 86" fill="none" xmlns="http://www.w3.org/2000/svg">
<g clip-path="url(#clip0_33_724)">
<path d="M43.519 74.9207C41.3956 75.6151 39.7428 76.1578 39.6472 76.1892L43.519 74.9207Z" fill="#38003D" fill-opacity="0.31"/>
<path d="M43.519 74.9207C41.3956 75.6151 39.7428 76.1578 39.6472 76.1892" stroke="#F14CFF" stroke-width="0.220436" stroke-linecap="round" stroke-linejoin="round"/>
<path d="M43.6682 60.8596C43.6255 59.8265 43.483 58.7656 43.2459 57.6843C43.2166 57.5305 43.1809 57.3759 43.1389 57.2202C42.8773 56.1288 42.5213 55.017 42.0654 53.8775C41.9467 53.5806 41.8261 53.2964 41.7055 53.0121C41.4075 52.3443 41.0983 51.7074 40.7646 51.1058C40.218 50.0959 39.613 49.1748 38.9502 48.3362C38.1085 47.2568 37.1753 46.3134 36.1514 45.4997C35.7093 45.1485 35.2731 44.8438 34.8432 44.5855C32.9843 43.4406 31.2592 43.1085 29.653 43.5996L29.4009 43.6794C29.3526 43.6982 29.3117 43.7118 29.2634 43.7306C28.9528 43.8538 28.6585 43.9989 28.3859 44.1731C26.8166 45.1636 25.8382 46.9951 25.4436 49.6729C24.9795 52.8215 25.4638 56.1943 26.8963 59.7913C27.452 61.1795 28.0837 62.4489 28.7978 63.6004C29.9326 65.4249 31.2681 66.9475 32.8102 68.1691C35.1669 70.0372 37.3354 70.6688 39.3157 70.0638L39.5006 70.0001L39.6991 69.9319C41.7813 69.121 43.0547 67.138 43.5188 63.9895C43.6688 62.9718 43.7189 61.9264 43.6682 60.8596ZM39.3948 59.6058L38.5124 59.6838L37.9849 59.7359L36.615 59.859L36.7126 61.0041L37.0028 64.4588C37.024 64.7999 36.9242 64.9932 36.6922 65.024C36.4675 65.0494 36.2645 64.8829 36.0979 64.5139L34.6912 61.6681L33.9802 60.231L31.1741 60.6168C30.9393 60.6666 30.741 60.514 30.5643 60.1695C30.3949 59.8196 30.3599 59.5284 30.4737 59.2852L31.9939 56.2014L29.8574 52.0457C29.6909 51.6767 29.6558 51.3856 29.7669 51.1615C29.8706 50.9429 30.0597 50.9382 30.3269 51.153L31.2285 51.8709L33.3416 53.5405L34.8929 50.2013C34.9498 50.0797 35.0238 50.0192 35.1166 50.0069C35.2148 50.0019 35.3311 50.0515 35.4652 50.1557C35.7325 50.3706 35.8793 50.6521 35.9005 50.9932L36.0187 52.6614L36.1644 54.626L36.18 54.8297L36.251 55.8475L36.7628 56.2544L39.2664 58.2286C39.3416 58.2917 39.4103 58.3538 39.4645 58.4268C39.5694 58.5527 39.6389 58.6994 39.6682 58.8532C39.6916 58.9151 39.7022 58.9753 39.7055 59.0407C39.7296 59.3627 39.6306 59.5495 39.3948 59.6058Z" fill="#38003D" fill-opacity="0.31" stroke="#F14CFF" stroke-width="0.220436" stroke-linecap="round" stroke-linejoin="round"/>
<path d="M39.3949 59.6061L38.5125 59.6841L37.9849 59.7363L36.6151 59.8594L37.6803 59.5095L38.2888 59.3067L39.6683 58.8536C39.6917 58.9156 39.7022 58.9756 39.7056 59.0411C39.7296 59.3631 39.6307 59.5499 39.3949 59.6061Z" fill="#38003D" fill-opacity="0.31" stroke="#F14CFF" stroke-width="0.220436" stroke-linecap="round" stroke-linejoin="round"/>
<path d="M37.68 59.5094L36.6147 59.8593L36.7123 61.0044L37.0025 64.4591C37.0237 64.8001 36.9238 64.9934 36.6918 65.0242C36.4671 65.0496 36.2642 64.8832 36.0976 64.5142L34.6908 61.6684L33.9798 60.2313L37.2233 59.1691L38.0502 58.8946L39.4642 58.4271C39.5691 58.553 39.6386 58.6998 39.6679 58.8536L38.2884 59.3066L37.68 59.5094Z" fill="#38003D" fill-opacity="0.31" stroke="#F14CFF" stroke-width="0.220436" stroke-linecap="round" stroke-linejoin="round"/>
<path d="M36.1798 54.8296L33.6812 55.6442L31.9937 56.2013L29.8573 52.0456C29.6907 51.6766 29.6557 51.3855 29.7667 51.1614C29.8704 50.9428 30.0595 50.9381 30.3268 51.153L31.2283 51.8708L33.3414 53.5405L35.636 52.7869L36.0185 52.6613L36.1643 54.6259L36.1798 54.8296Z" fill="#38003D" fill-opacity="0.31" stroke="#F14CFF" stroke-width="0.220436" stroke-linecap="round" stroke-linejoin="round"/>
<path d="M39.4642 58.427L38.0501 58.8944L37.2233 59.169L33.9798 60.2312L31.1737 60.617C30.9389 60.6668 30.7406 60.5142 30.5639 60.1697C30.3945 59.8198 30.3594 59.5286 30.4733 59.2854L31.9935 56.2016L33.681 55.6444L36.1796 54.8298L36.2506 55.8477L36.7624 56.2546L39.266 58.2288C39.3412 58.2919 39.4099 58.354 39.4642 58.427Z" fill="#38003D" fill-opacity="0.31" stroke="#F14CFF" stroke-width="0.220436" stroke-linecap="round" stroke-linejoin="round"/>
<path d="M36.0181 52.6616L35.6356 52.7873L33.341 53.5408L34.8924 50.2016C34.9493 50.08 35.0233 50.0194 35.1161 50.0071C35.2143 50.0021 35.3305 50.0517 35.4646 50.156C35.7319 50.3708 35.8788 50.6524 35.9 50.9935L36.0181 52.6616Z" fill="#38003D" fill-opacity="0.31" stroke="#F14CFF" stroke-width="0.220436" stroke-linecap="round" stroke-linejoin="round"/>
<path d="M54.5638 72.7407L54.5441 72.8743C53.9589 76.6678 52.4136 79.0396 49.9033 80.0214C47.3657 81.0121 44.5546 80.2859 41.4758 77.8499C41.1731 77.6104 40.867 77.3508 40.55 77.0766C40.2384 76.8097 39.9314 76.511 39.6473 76.1897C41.1087 76.1516 42.3991 75.7309 43.5193 74.9212L43.5254 74.9221C43.9925 74.575 44.4209 74.1832 44.834 73.7177C46.1938 72.1635 47.0842 70.0461 47.5053 67.3656L47.5334 67.1748C47.6581 66.3288 47.7392 65.4699 47.764 64.5962C47.861 61.998 47.5365 59.3052 46.7832 56.5231C46.7466 56.3747 46.7045 56.219 46.6552 56.0688C46.6446 56.0087 46.6276 55.9477 46.6043 55.8858C46.2918 54.7869 45.903 53.6768 45.4579 52.5519C45.4237 52.4753 45.3968 52.3935 45.3562 52.316C45.2996 52.1712 45.2438 52.0199 45.1744 51.8732C44.9019 51.2091 44.6065 50.5677 44.2956 49.9435C42.9936 47.269 41.4308 44.9526 39.62 42.996C38.9649 42.282 38.276 41.6216 37.5549 41.0019C37.3412 40.8209 37.1147 40.6381 36.8936 40.4626C36.4633 40.1197 36.029 39.8022 35.6093 39.5194C32.8488 37.6568 30.2867 37.0062 27.9228 37.5677C27.587 37.6417 27.2528 37.7483 26.9286 37.876C23.9355 39.0466 22.0961 41.9144 21.4211 46.4941C21.0011 49.3437 21.0768 52.4028 21.6424 55.6641C22.208 58.9255 23.4047 61.9613 25.2326 64.7717C24.9241 64.6158 24.6014 64.4253 24.2851 64.1902C23.9615 63.9605 23.6515 63.7264 23.3489 63.4868C20.3054 61.0756 17.9082 57.6743 16.1628 53.2903C14.4164 48.9126 13.8254 44.8092 14.3889 40.9864C14.9214 37.3735 16.3402 35.0222 18.6537 33.9204C18.9544 33.7763 19.2503 33.6639 19.5617 33.5798L19.63 33.5573C21.6911 32.9773 23.9863 33.5431 26.5028 35.2528L25.7911 31.5279L22.334 13.3155C22.1207 12.2053 22.2706 11.4086 22.7719 10.9171C22.8934 10.7985 23.0238 10.7072 23.1677 10.657L23.318 10.6076C23.7139 10.5229 24.1641 10.6868 24.676 11.0937L33.0156 17.6974C33.784 18.3046 34.4388 19.1095 34.9881 20.1003C35.5301 21.0965 35.9256 22.1621 36.1688 23.2898L37.3177 29.2951L38.0083 32.8997L39.8652 30.5739L40.0728 30.312L41.994 27.9046C42.2745 27.5885 42.5873 27.3617 42.9379 27.2314L43.2248 27.1372L43.2721 27.1246C43.4341 27.0835 43.5987 27.0689 43.7752 27.0624C44.4663 27.0473 45.2015 27.3506 45.9699 27.9578L54.303 34.5605C55.0714 35.1677 55.595 36.0247 55.861 37.1297C56.128 38.2284 56.0296 39.0717 55.5752 39.6417L54.9143 40.467L52.4234 43.6093L49.6071 47.152L46.5514 50.9974C47.9297 52.2728 49.1497 53.7395 50.2253 55.3927C50.247 55.4219 50.2624 55.4502 50.2841 55.4794C51.3623 57.159 52.2876 59.0371 53.055 61.1063C53.5483 62.4333 53.9344 63.738 54.2143 65.014C54.7125 67.2776 54.8729 69.4523 54.6954 71.5383C54.6682 71.9437 54.6219 72.3463 54.5638 72.7407Z" fill="#38003D" fill-opacity="0.31" stroke="#F14CFF" stroke-width="0.220436" stroke-linecap="round" stroke-linejoin="round"/>
<path d="M68.2224 68.255C67.6524 72.1223 66.0996 74.545 63.562 75.5357L49.9031 80.0214C52.4134 79.0397 53.9588 76.6679 54.5439 72.8743L54.5636 72.7407C54.6217 72.3464 54.6681 71.9438 54.6953 71.5384C54.8728 69.4524 54.7124 67.2776 54.2142 65.0141C53.9343 63.7381 53.5481 62.4334 53.0548 61.1064C52.2875 59.0371 51.3621 57.1591 50.2839 55.4794L50.2735 55.3739L50.2251 55.3928C49.1495 53.7395 47.9295 52.2728 46.5513 50.9974L49.8083 49.9307L55.1973 48.158L58.674 47.0132L60.2101 46.5117C63.0064 49.101 65.1745 52.4685 66.7136 56.6207C68.2537 60.7665 68.754 64.6485 68.2224 68.255Z" fill="#38003D" fill-opacity="0.31" stroke="#F14CFF" stroke-width="0.220436" stroke-linecap="round" stroke-linejoin="round"/>
<path d="M69.2339 35.1559L60.2102 46.5116L58.674 47.0131L55.1973 48.1579L49.8083 49.9306L46.5513 50.9973L49.607 47.1519L52.4233 43.6093L54.9142 40.467L55.5751 39.6416C56.0295 39.0717 56.1279 38.2284 55.8609 37.1297C55.5949 36.0247 55.0713 35.1676 54.3029 34.5605L45.9697 27.9577C45.2014 27.3506 44.4662 27.0472 43.7751 27.0624C43.5986 27.0688 43.434 27.0835 43.272 27.1246L50.9356 24.6018L56.5966 22.7456L56.7542 22.6909C56.9664 22.6182 57.1929 22.5801 57.4339 22.5767C58.125 22.5615 58.8602 22.8649 59.6286 23.472L67.9618 30.0748C68.7301 30.6819 69.2537 31.539 69.5197 32.644C69.7867 33.7427 69.6884 34.586 69.2339 35.1559Z" fill="#38003D" fill-opacity="0.31" stroke="#F14CFF" stroke-width="0.220436" stroke-linecap="round" stroke-linejoin="round"/>
<path d="M50.9356 24.6018L43.2719 27.1247L43.2247 27.1372C43.1246 27.1549 43.0289 27.1863 42.9378 27.2314C42.5871 27.3617 42.2744 27.5885 41.9938 27.9046L40.0727 30.312L39.8651 30.5739L38.0082 32.8998L37.3176 29.2951L36.1686 23.2898C35.9254 22.1621 35.5301 21.0965 34.988 20.1003C34.4387 19.1095 33.7839 18.3046 33.0155 17.6975L24.6759 11.0937C24.164 10.6869 23.7138 10.523 23.3179 10.6076L36.8201 6.17035L36.9357 6.13534C37.3344 6.03164 37.8056 6.18559 38.3348 6.60802L46.6744 13.2118C47.4427 13.8189 48.0975 14.6238 48.6469 15.6146C49.1889 16.6108 49.5843 17.6764 49.8275 18.8041L50.9356 24.6018Z" fill="#38003D" fill-opacity="0.31" stroke="#F14CFF" stroke-width="0.220436" stroke-linecap="round" stroke-linejoin="round"/>
<path d="M25.4436 49.6733C24.9796 52.8219 25.4638 56.1947 26.8963 59.7918C27.4521 61.1799 28.0837 62.4493 28.7979 63.6008L25.2329 64.7716C23.405 61.9611 22.2083 58.9253 21.6427 55.664C21.0771 52.4027 21.0015 49.3436 21.4215 46.494C22.0965 41.9143 23.9359 39.0465 26.9289 37.8759C27.2532 37.7482 27.5874 37.6415 27.9232 37.5675C30.287 37.0061 32.8492 37.6567 35.6096 39.5193C35.4019 40.2231 35.2376 40.9852 35.1167 41.8057L29.6531 43.6L29.401 43.6798C29.3527 43.6986 29.3118 43.7122 29.2635 43.7311C28.9529 43.8542 28.6586 43.9993 28.3859 44.1735C26.8167 45.164 25.8383 46.9955 25.4436 49.6733Z" fill="#38003D" fill-opacity="0.31" stroke="#F14CFF" stroke-width="0.220436" stroke-linecap="round" stroke-linejoin="round"/>
<path d="M26.5028 35.2526C23.9863 33.5429 21.6911 32.9772 19.63 33.5572L25.7911 31.5277L26.5028 35.2526Z" fill="#38003D" fill-opacity="0.31" stroke="#F14CFF" stroke-width="0.220436" stroke-linecap="round" stroke-linejoin="round"/>
<path d="M47.5337 67.175L47.5055 67.3658L39.6991 69.9326C41.7813 69.1217 43.0547 67.1388 43.5188 63.9902C43.6688 62.9725 43.7189 61.9271 43.6682 60.8603C43.6255 59.8272 43.4829 58.7664 43.2459 57.6851C43.2165 57.5313 43.1809 57.3766 43.1388 57.2209C42.8772 56.1295 42.5213 55.0178 42.0653 53.8782C41.9466 53.5813 41.826 53.2971 41.7055 53.0128C41.4074 52.345 41.0983 51.7081 40.7646 51.1065C40.218 50.0966 39.613 49.1755 38.9502 48.337C38.1085 47.2576 37.1752 46.3142 36.1514 45.5004C35.7092 45.1493 35.2731 44.8446 34.8432 44.5863C32.9843 43.4414 31.2591 43.1092 29.653 43.6003L35.1165 41.806L37.5552 41.0022C38.2762 41.6218 38.9651 42.2823 39.6203 42.9962C41.431 44.9528 42.9938 47.2693 44.2958 49.9437C44.6067 50.568 44.9022 51.2094 45.1747 51.8735C45.2441 52.0202 45.2999 52.1714 45.3565 52.3162C45.3971 52.3937 45.4239 52.4756 45.4581 52.5521C45.9032 53.677 46.2921 54.7872 46.6045 55.886C46.6279 55.948 46.6448 56.0089 46.6554 56.069C46.7048 56.2193 46.7469 56.3749 46.7835 56.5233C47.5368 59.3054 47.8613 61.9982 47.7643 64.5965C47.7395 65.4701 47.6583 66.329 47.5337 67.175Z" fill="#38003D" fill-opacity="0.31" stroke="#F14CFF" stroke-width="0.220436" stroke-linecap="round" stroke-linejoin="round"/>
</g>
<defs>
<clipPath id="clip0_33_724">
<rect width="75.2239" height="75.2239" fill="white" transform="translate(11.0731 0.477539) rotate(8.38435)"/>
</clipPath>
</defs>
</svg>
